<svg width="144" height="24" viewBox="0 0 144 24" fill="none" xmlns="http://www.w3.org/2000/svg">
<circle cx="12" cy="12" r="12" fill="white"/>
<path d="M16.7273 4H14.3471C13.295 4 12.286 4.42143 11.5421 5.17157C10.7981 5.92172 10.3802 6.93913 10.3802 8V10.4H8V13.6H10.3802V20H13.5537V13.6H15.9339L16.7273 10.4H13.5537V8C13.5537 7.78783 13.6373 7.58434 13.7861 7.43431C13.9349 7.28429 14.1367 7.2 14.3471 7.2H16.7273V4Z" stroke="black" stroke-linecap="round" stroke-linejoin="round"/>
<circle cx="52" cy="12" r="12" fill="white"/>
<path d="M59 5L50 14" stroke="black" stroke-linecap="round" stroke-linejoin="round"/>
<path d="M59 5L53.4 21L50.2 13.8L43 10.6L59 5Z" stroke="black" stroke-linecap="round" stroke-linejoin="round"/>
<circle cx="92" cy="12" r="12" fill="white"/>
<path d="M95.8027 4C98.1595 4.00016 100.07 5.91081 100.07 8.26758V15.8027C100.07 18.1594 98.1594 20.0702 95.8027 20.0703H88.2676C85.9108 20.0703 84.0002 18.1595 84 15.8027V8.26758C84 5.91071 85.9107 4 88.2676 4H95.8027ZM88.2676 5C86.463 5 85 6.463 85 8.26758V15.8027C85.0002 17.6072 86.4631 19.0703 88.2676 19.0703H95.8027C97.6071 19.0702 99.0702 17.6071 99.0703 15.8027V8.26758C99.0703 6.4631 97.6072 5.00016 95.8027 5H88.2676ZM90.4492 8.88281C91.1052 8.54246 91.852 8.41799 92.583 8.52637C93.3288 8.63696 94.0196 8.98448 94.5527 9.51758C95.0857 10.0507 95.4334 10.7416 95.5439 11.4873C95.6522 12.2182 95.5269 12.9652 95.1865 13.6211C94.8461 14.2769 94.3075 14.8084 93.6475 15.1406C92.9874 15.4729 92.2394 15.589 91.5098 15.4717C90.7801 15.3543 90.1056 15.0098 89.583 14.4873C89.0604 13.9647 88.7161 13.2902 88.5986 12.5605C88.4812 11.831 88.5966 11.0829 88.9287 10.4229C89.261 9.76264 89.7932 9.22323 90.4492 8.88281ZM92.4365 9.51562C91.9136 9.43808 91.3794 9.52711 90.9102 9.77051C90.4408 10.014 90.06 10.3997 89.8223 10.8721C89.5846 11.3443 89.502 11.8794 89.5859 12.4014C89.67 12.9234 89.9161 13.4064 90.29 13.7803C90.6638 14.154 91.1461 14.4003 91.668 14.4844C92.19 14.5684 92.7259 14.4858 93.1982 14.248C93.6704 14.0103 94.0553 13.6294 94.2988 13.1602C94.5423 12.6909 94.6322 12.1567 94.5547 11.6338C94.4756 11.1003 94.227 10.606 93.8457 10.2246C93.4643 9.84324 92.97 9.59476 92.4365 9.51562ZM96.1875 7.39062C96.4635 7.3907 96.6874 7.61458 96.6875 7.89062C96.6875 8.16672 96.4636 8.39055 96.1875 8.39062H96.1787C95.9028 8.39037 95.6787 8.16661 95.6787 7.89062C95.6788 7.61469 95.9028 7.39088 96.1787 7.39062H96.1875Z" fill="black"/>
<circle cx="132" cy="12" r="12" fill="white"/>
<path d="M127 6.5C127 5.83696 127.263 5.20107 127.732 4.73223C128.201 4.26339 128.837 4 129.5 4H132V9H129.5C128.837 9 128.201 8.73661 127.732 8.26777C127.263 7.79893 127 7.16304 127 6.5Z" stroke="black" stroke-linecap="round" stroke-linejoin="round"/>
<path d="M132 4H134.5C134.828 4 135.153 4.06466 135.457 4.1903C135.76 4.31594 136.036 4.50009 136.268 4.73223C136.5 4.96438 136.684 5.23998 136.81 5.54329C136.935 5.84661 137 6.1717 137 6.5C137 6.8283 136.935 7.15339 136.81 7.45671C136.684 7.76002 136.5 8.03562 136.268 8.26777C136.036 8.49991 135.76 8.68406 135.457 8.8097C135.153 8.93534 134.828 9 134.5 9H132V4Z" stroke="black" stroke-linecap="round" stroke-linejoin="round"/>
<path d="M132 11.5C132 11.1717 132.065 10.8466 132.19 10.5433C132.316 10.24 132.5 9.96438 132.732 9.73223C132.964 9.50009 133.24 9.31594 133.543 9.1903C133.847 9.06466 134.172 9 134.5 9C134.828 9 135.153 9.06466 135.457 9.1903C135.76 9.31594 136.036 9.50009 136.268 9.73223C136.5 9.96438 136.684 10.24 136.81 10.5433C136.935 10.8466 137 11.1717 137 11.5C137 11.8283 136.935 12.1534 136.81 12.4567C136.684 12.76 136.5 13.0356 136.268 13.2678C136.036 13.4999 135.76 13.6841 135.457 13.8097C135.153 13.9353 134.828 14 134.5 14C134.172 14 133.847 13.9353 133.543 13.8097C133.24 13.6841 132.964 13.4999 132.732 13.2678C132.5 13.0356 132.316 12.76 132.19 12.4567C132.065 12.1534 132 11.8283 132 11.5V11.5Z" stroke="black" stroke-linecap="round" stroke-linejoin="round"/>
<path d="M127 16.5C127 15.837 127.263 15.2011 127.732 14.7322C128.201 14.2634 128.837 14 129.5 14H132V16.5C132 17.163 131.737 17.7989 131.268 18.2678C130.799 18.7366 130.163 19 129.5 19C128.837 19 128.201 18.7366 127.732 18.2678C127.263 17.7989 127 17.163 127 16.5Z" stroke="black" stroke-linecap="round" stroke-linejoin="round"/>
<path d="M127 11.5C127 10.837 127.263 10.2011 127.732 9.73223C128.201 9.26339 128.837 9 129.5 9H132V14H129.5C128.837 14 128.201 13.7366 127.732 13.2678C127.263 12.7989 127 12.163 127 11.5Z" stroke="black" stroke-linecap="round" stroke-linejoin="round"/>
</svg>
